<svg width="102" height="102" viewBox="0 0 102 102" fill="none" xmlns="http://www.w3.org/2000/svg">
<circle cx="51" cy="51" r="51" fill="#596774"/>
<g clip-path="url(#clip0_2017_54)">
<path d="M77 65.9631C76.8394 66.3252 76.6774 66.6887 76.4488 67.2059C70.4368 62.6889 64.478 58.2131 58.2578 53.5397C58.5722 53.371 58.8104 53.301 58.971 53.1488C64.6495 47.7704 70.3198 42.3838 75.9942 37.0026C76.2827 36.7297 76.5604 36.1865 77 36.8518V65.9631Z" fill="#7BD6CD"/>
<path d="M74.4983 34.3197C73.7606 35.0261 73.1168 35.6461 72.4689 36.2606C66.8163 41.6281 61.1623 46.9955 55.5084 52.3615C52.8992 54.8388 50.1021 54.8374 47.4929 52.3588C41.451 46.6251 35.4133 40.8887 29.3727 35.1551C29.1114 34.9068 28.8201 34.6887 28.5153 34.4322C29.3578 33.9233 73.2298 33.8355 74.4983 34.3197Z" fill="#7BD6CD"/>
<path d="M46.2068 55.2214C47.689 56.3586 49.2624 57.0718 51.089 57.15C52.9469 57.2296 54.6401 56.7646 56.1441 55.67C56.5715 55.3586 56.8614 55.2516 57.3473 55.6192C62.9999 59.8975 68.6715 64.1484 74.3364 68.4088C74.4112 68.4651 74.4671 68.5501 74.7189 68.83C73.9253 68.8958 73.3033 68.9904 72.6813 68.9918C60.9623 69.0014 49.242 68.9987 37.523 68.9987C35.0336 68.9987 32.5428 69.0069 30.0534 68.9918C29.5334 68.9891 29.0135 68.9013 28.401 68.6091C34.3299 64.1525 40.2588 59.6959 46.2095 55.2228L46.2068 55.2214Z" fill="#7BD6CD"/>
<path d="M44.5653 53.6699C38.5384 58.1993 32.5945 62.6655 26.4356 67.2949C26.2668 66.4143 26.0205 65.7216 26.0177 65.0262C25.9919 55.9675 25.9987 46.9089 26.0096 37.8503C26.0096 37.399 26.1321 36.9477 26.2301 36.2673C32.4053 42.1272 38.4282 47.8444 44.5653 53.6699Z" fill="#7BD6CD"/>
</g>
<defs>
<clipPath id="clip0_2017_54">
<rect width="51" height="35" fill="white" transform="translate(26 34)"/>
</clipPath>
</defs>
</svg>
