<svg width="102" height="102" viewBox="0 0 102 102" fill="none" xmlns="http://www.w3.org/2000/svg">
<circle cx="51" cy="51" r="51" fill="#596774"/>
<path d="M79 54.5927C78.7275 55.133 78.7986 55.7351 78.7006 56.3058C76.8015 67.2603 70.7674 74.8125 60.444 78.8322C59.1697 79.328 58.3166 78.6955 58.3188 77.3252C58.3209 75.138 58.3058 72.9508 58.3403 70.7647C58.3748 68.5427 58.1917 66.3989 56.5221 64.6229C57.9267 64.4265 59.243 64.2073 60.5291 63.8287C65.3698 62.4042 68.0336 59.1017 68.7779 54.1457C69.0687 52.208 69.1732 50.2671 68.7994 48.324C68.4483 46.4948 67.6512 44.8804 66.4685 43.4591C66.2875 43.2422 66.2304 43.0729 66.3198 42.793C67.0469 40.4973 66.8153 38.2352 66.057 35.9927C65.9536 35.6867 65.7608 35.627 65.4915 35.6227C64.3174 35.6042 63.2316 35.9655 62.1717 36.4169C60.9642 36.93 59.8322 37.5864 58.7539 38.335C58.4976 38.5129 58.2757 38.5498 57.9622 38.4695C53.6375 37.364 49.3084 37.3434 44.988 38.488C44.6616 38.5748 44.4462 38.4804 44.1984 38.3155C42.5666 37.2251 40.8884 36.1955 38.942 35.8115C36.6929 35.3666 37.057 35.4122 36.5582 37.2642C36.0606 39.1129 36.0627 40.9779 36.6573 42.8169C36.7403 43.0729 36.694 43.2378 36.5238 43.4407C34.6689 45.6507 33.8707 48.2252 33.9354 51.0981C33.9828 53.2224 34.2348 55.3098 35.0158 57.3028C36.4096 60.8603 39.1078 62.8913 42.6635 63.9144C43.8678 64.2616 45.1011 64.4656 46.4303 64.6424C45.4425 65.6937 44.946 66.9001 44.7564 68.2433C44.7262 68.4538 44.5582 68.4874 44.416 68.5438C41.4151 69.7481 38.5639 69.2338 36.7597 66.1537C35.8689 64.6326 34.6377 63.5293 32.8421 63.207C32.4823 63.1419 32.129 63.1593 31.7768 63.2559C31.1973 63.4153 31.0982 63.73 31.5086 64.1856C31.7003 64.3983 31.9114 64.6077 32.1516 64.7563C33.5551 65.6243 34.5418 66.8752 35.0782 68.3952C36.2491 71.7161 39.3233 72.8987 42.4405 72.6524C43.048 72.6047 43.6556 72.5494 44.2491 72.3975C44.5453 72.3215 44.6519 72.3953 44.6498 72.7273C44.6401 74.282 44.6605 75.8356 44.6605 77.3903C44.6605 78.6532 43.8096 79.2814 42.6193 78.8713C40.8884 78.2735 39.2263 77.5151 37.6655 76.5506C30.2688 71.9798 25.651 65.3899 24.3822 56.7712C22.7223 45.5042 26.4761 36.2064 35.5166 29.2769C40.59 25.3896 46.4561 23.6852 52.8113 24.0476C61.5836 24.5466 68.5538 28.5153 73.7327 35.6346C76.7778 39.8192 78.4323 44.5549 78.8912 49.7181C78.8988 49.8038 78.8783 49.9036 78.9989 49.9297V54.5927H79Z" fill="#7BD6CD"/>
</svg>
