<svg width="72" height="36" viewBox="0 0 72 36" fill="none" xmlns="http://www.w3.org/2000/svg">
<g clip-path="url(#clip0_2003_116)">
<path d="M-0.00025016 17.5815C0.364382 17.134 0.693788 16.6515 1.10069 16.2443C6.29715 11.0518 11.5024 5.86988 16.7077 0.68616C17.4968 -0.0999994 18.3653 -0.214059 19.0804 0.359763C19.7692 0.912528 19.9066 1.8303 19.3817 2.53924C19.1738 2.81826 18.9237 3.0692 18.6753 3.31663C14.5498 7.42991 10.4244 11.5414 6.29363 15.6477C6.11395 15.8267 5.89201 15.9636 5.68943 16.1197C5.7229 16.197 5.7546 16.2742 5.78807 16.3514C6.07344 16.3514 6.3588 16.3514 6.64593 16.3514C27.6238 16.3514 48.6016 16.3514 69.5777 16.3549C69.9722 16.3549 70.3756 16.376 70.7614 16.4549C71.4995 16.6076 72.0209 17.3025 71.9997 18.0307C71.9768 18.745 71.466 19.396 70.7596 19.5364C70.3739 19.6136 69.9705 19.6311 69.5741 19.6311C48.621 19.6346 27.666 19.6346 6.71287 19.6346L5.63482 19.6346C5.94132 19.9575 6.11924 20.1558 6.30773 20.3436C10.5301 24.5569 14.7524 28.772 18.98 32.98C19.549 33.5468 19.8995 34.161 19.5789 34.9822C19.2073 35.9316 18.0253 36.3054 17.1921 35.7193C16.9067 35.5192 16.6584 35.263 16.41 35.0173C11.3034 29.9354 6.19499 24.8535 1.09893 19.7592C0.692026 19.3539 0.364381 18.8695 0.00151216 18.4221L0.00151223 17.5815L-0.00025016 17.5815Z" fill="#F2F5F7"/>
</g>
<defs>
<clipPath id="clip0_2003_116">
<rect width="72" height="36" fill="white" transform="translate(72 36) rotate(-180)"/>
</clipPath>
</defs>
</svg>
