<svg width="102" height="102" viewBox="0 0 102 102" fill="none" xmlns="http://www.w3.org/2000/svg">
<circle cx="51" cy="51" r="51" fill="#596774"/>
<g clip-path="url(#clip0_2017_74)">
<path d="M54.0547 47.9023C55.0119 46.4553 56.1728 45.3411 57.5954 44.5041C58.9231 43.7231 60.354 43.2556 61.8891 43.1235C63.9636 42.9452 65.9889 43.154 67.9184 43.9817C70.42 45.0545 72.0944 46.9197 73.0625 49.4399C73.5408 50.6863 73.8191 51.9804 73.9021 53.3129C73.9492 54.0783 73.9938 54.8458 73.9948 55.6129C74.0026 61.5982 73.999 67.583 73.999 73.5683C73.999 73.8561 73.8589 74.0002 73.5787 74.0005C70.7371 74.0005 67.8961 74.0005 65.0545 74.0005C64.6876 74.0005 64.6876 73.9995 64.6871 73.6269C64.6871 68.3588 64.698 63.0902 64.6778 57.8222C64.6731 56.5426 64.4865 55.2786 63.9263 54.1011C63.2339 52.6453 62.0959 51.8006 60.4883 51.613C59.1926 51.4616 57.9364 51.5902 56.7792 52.2395C55.4509 52.9848 54.7113 54.1814 54.3791 55.6201C54.1946 56.4203 54.0723 57.2537 54.0682 58.073C54.0407 63.2545 54.0542 68.4365 54.0542 73.6186C54.0542 73.8729 53.9265 74.0002 53.6712 74.0005C50.9333 74.0005 48.1959 74.0005 45.458 74.0005C45.0978 74.0005 45.0968 73.999 45.0968 73.6476C45.0968 63.8712 45.0968 54.0949 45.0968 44.318C45.0968 43.9641 45.0973 43.963 45.4528 43.963C48.199 43.963 50.9457 43.963 53.6919 43.963C54.0537 43.963 54.0537 43.9641 54.0537 44.3372C54.0537 45.4167 54.0537 46.4963 54.0537 47.5758V47.9033L54.0547 47.9023Z" fill="#7BD6CD"/>
<path d="M39.2328 58.9846C39.2328 63.8634 39.2328 68.7423 39.2328 73.6211C39.2328 73.873 39.1039 73.9991 38.8462 73.9995C35.988 73.9995 33.1299 73.9995 30.2717 73.9995C29.8851 73.9995 29.8831 73.9984 29.8831 73.6103C29.8831 63.8609 29.8831 54.112 29.8831 44.3626C29.8831 43.9615 29.8846 43.9609 30.2821 43.9609C33.1402 43.9609 35.9984 43.9609 38.8565 43.9609C39.107 43.9609 39.2324 44.0896 39.2328 44.347C39.2328 49.2259 39.2328 54.1047 39.2328 58.9836V58.9846Z" fill="#7BD6CD"/>
<path d="M34.5142 40.1145C31.6866 40.1513 29.0062 37.8606 29 34.5686C28.9943 31.4441 31.4472 28.9984 34.5251 29C37.605 29.0016 40.0377 31.4493 40.0387 34.5536C40.0392 37.8616 37.3557 40.1575 34.5147 40.1145H34.5142Z" fill="#7BD6CD"/>
</g>
<defs>
<clipPath id="clip0_2017_74">
<rect width="45" height="45" fill="white" transform="translate(29 29)"/>
</clipPath>
</defs>
</svg>
