<svg width="72" height="36" viewBox="0 0 72 36" fill="none" xmlns="http://www.w3.org/2000/svg">
<g clip-path="url(#clip0_2003_114)">
<path d="M72.0001 18.4185C71.6355 18.866 71.3061 19.3485 70.8992 19.7557C65.7027 24.9482 60.4975 30.1301 55.2922 35.3138C54.503 36.1 53.6346 36.2141 52.9194 35.6402C52.2307 35.0875 52.0933 34.1697 52.6182 33.4608C52.8261 33.1817 53.0762 32.9308 53.3246 32.6834C57.4501 28.5701 61.5755 24.4586 65.7063 20.3523C65.8859 20.1733 66.1079 20.0364 66.3104 19.8802C66.277 19.803 66.2453 19.7258 66.2118 19.6486C65.9264 19.6486 65.6411 19.6486 65.354 19.6486C44.3761 19.6486 23.3983 19.6486 2.42221 19.6451C2.02763 19.6451 1.62425 19.624 1.23847 19.5451C0.500401 19.3924 -0.0210063 18.6975 0.000131822 17.9693C0.0230315 17.255 0.53387 16.604 1.24024 16.4636C1.62601 16.3864 2.02939 16.3689 2.42573 16.3689C23.3789 16.3654 44.3338 16.3654 65.287 16.3654H66.3651C66.0586 16.0425 65.8806 15.8442 65.6922 15.6564C61.4698 11.4431 57.2475 7.22804 53.0198 3.02C52.4509 2.45319 52.1003 1.83901 52.4209 1.01776C52.7926 0.0684032 53.9746 -0.305372 54.8078 0.280736C55.0932 0.480784 55.3415 0.736987 55.5899 0.982661C60.6965 6.0646 65.8049 11.1465 70.9009 16.2408C71.3079 16.6461 71.6355 17.1305 71.9984 17.5779V18.4185H72.0001Z" fill="#F2F5F7"/>
</g>
<defs>
<clipPath id="clip0_2003_114">
<rect width="72" height="36" fill="white"/>
</clipPath>
</defs>
</svg>
